<?xml version="1.0" encoding="UTF-8"?>
<!DOCTYPE svg PUBLIC "-//W3C//DTD SVG 1.1//EN" "http://www.w3.org/Graphics/SVG/1.1/DTD/svg11.dtd">
<!-- Creator: CorelDRAW X7 -->
<svg xmlns="http://www.w3.org/2000/svg" xml:space="preserve" width="2.86427in" height="1.44648in" version="1.1" style="shape-rendering:geometricPrecision; text-rendering:geometricPrecision; image-rendering:optimizeQuality; fill-rule:evenodd; clip-rule:evenodd"
viewBox="0 0 2044 1032"
 xmlns:xlink="http://www.w3.org/1999/xlink">
 <defs>
  <style type="text/css">
   <![CDATA[
    .fil2 {fill:#51B960;fill-rule:nonzero}
    .fil3 {fill:#1D6BB3;fill-rule:nonzero}
    .fil0 {fill:url(#id0)}
    .fil1 {fill:url(#id1)}
    .fil5 {fill:url(#id2)}
    .fil4 {fill:url(#id3)}
   ]]>
  </style>
  <linearGradient id="id0" gradientUnits="userSpaceOnUse" x1="-0" y1="465.386" x2="1469.25" y2="465.386">
   <stop offset="0" style="stop-opacity:1; stop-color:#7FC57C"/>
   <stop offset="0.478431" style="stop-opacity:1; stop-color:#54B267"/>
   <stop offset="1" style="stop-opacity:1; stop-color:#289E52"/>
  </linearGradient>
  <linearGradient id="id1" gradientUnits="userSpaceOnUse" x1="1032.13" y1="156.763" x2="536.203" y2="900.659">
   <stop offset="0" style="stop-opacity:1; stop-color:#1D6BB3"/>
   <stop offset="1" style="stop-opacity:1; stop-color:#00B2F0"/>
  </linearGradient>
  <linearGradient id="id2" gradientUnits="userSpaceOnUse" xlink:href="#id1" x1="999.195" y1="877.555" x2="1513.92" y2="141.17">
  </linearGradient>
  <linearGradient id="id3" gradientUnits="userSpaceOnUse" xlink:href="#id0" x1="2023.74" y1="620.41" x2="582.191" y2="529.906">
  </linearGradient>
 </defs>
 <g id="Layer_x0020_1">
  <metadata id="CorelCorpID_0Corel-Layer"/>
  <g id="_652919936">
   <g>
    <path class="fil0" d="M184 493c-123,297 320,433 320,438 -227,-6 -514,-167 -504,-375 47,-518 1099,-722 1438,-404 65,61 27,128 -94,64 -288,-152 -695,-107 -966,65 -88,56 -150,117 -194,212z"/>
    <path class="fil1" d="M348 563c-92,223 240,325 241,329 -171,-4 -391,-126 -379,-282 30,-390 871,-577 1125,-338 49,45 21,96 -70,48 -217,-115 -567,-46 -771,84 -66,42 -113,87 -146,159z"/>
   </g>
   <path class="fil2" d="M937 601l-244 -208 28 0 197 168 0 -98c0,-16 -1,-29 -3,-38 -2,-8 -7,-15 -13,-21 -7,-5 -16,-9 -26,-10l0 -5c0,0 3,1 8,1 21,2 34,3 42,3 7,0 23,-1 48,-4l0 5c-8,1 -15,4 -21,10 -6,5 -10,12 -13,20 -2,8 -3,19 -3,33l0 144zm-271 -208l271 231 0 19 -5 0 -213 -181 0 109c0,24 3,40 9,50 7,9 16,15 29,18l0 4c-23,-2 -39,-3 -48,-3 -9,0 -24,1 -43,3l0 -4c13,-3 22,-10 27,-19 5,-10 8,-27 8,-51l-1 -123 -17 -14c-23,-20 -43,-33 -59,-38l0 -5 42 4z"/>
   <path id="1" class="fil2" d="M1306 393l8 0 0 247 -16 0c-5,0 -17,1 -35,3l0 -4c9,-2 15,-6 20,-12 4,-6 7,-13 9,-20 1,-9 2,-26 2,-52l0 -99c0,-22 -3,-38 -9,-46 -6,-9 -13,-14 -22,-16l0 -4c10,1 24,1 43,3zm119 247l-94 0 0 -247 68 0c13,0 37,-1 73,-3 0,5 0,8 0,10 0,4 0,11 1,22 0,8 1,12 1,13l0 6 -5 0c-5,-14 -12,-22 -19,-26 -7,-4 -21,-6 -40,-6l-38 0c-6,0 -11,0 -16,1 -3,5 -5,18 -5,38l-1 16 0 38 51 0c19,0 32,-2 38,-5 6,-3 11,-11 15,-23l5 0c-1,14 -1,26 -1,36 0,7 0,15 1,26 0,3 1,9 1,19l-5 0c-1,-14 -6,-24 -13,-29 -7,-5 -18,-8 -33,-8l-59 0 0 52c0,20 1,37 4,52 6,1 13,1 21,1l35 0c20,0 35,-2 44,-6 11,-5 21,-15 31,-30l5 0c-2,7 -5,15 -8,24 -4,13 -7,23 -9,32 -18,-2 -34,-3 -48,-3z"/>
   <path id="2" class="fil3" d="M1034 640l183 -247 23 0 -170 230 75 0c30,0 51,-5 64,-15 12,-9 21,-21 28,-36l5 0c0,7 -3,19 -9,37 -5,16 -8,28 -8,34 -21,-2 -41,-3 -58,-3l-133 0zm161 -247l-182 247 -23 0 170 -230 -82 0c-26,0 -44,3 -55,9 -11,6 -19,17 -25,35l-5 0c0,-8 1,-20 4,-37 1,-9 2,-15 2,-18 0,-1 0,-4 -1,-9 16,2 38,3 65,3l132 0z"/>
   <g>
    <path class="fil4" d="M1857 568c134,-292 -303,-445 -303,-450 227,14 508,186 489,394 -66,516 -1126,679 -1452,348 -62,-63 -22,-129 96,-60 282,163 690,134 968,-28 90,-53 155,-111 202,-204z"/>
    <path class="fil5" d="M1696 492c101,-219 -228,-334 -228,-338 170,10 386,140 368,296 -46,389 -893,543 -1138,294 -47,-47 -17,-97 72,-45 213,123 565,68 774,-54 68,-39 116,-83 152,-153z"/>
   </g>
  </g>
 </g>
</svg>
