<?xml version="1.0" encoding="utf-8"?>
<!-- Generator: Adobe Illustrator 27.1.0, SVG Export Plug-In . SVG Version: 6.00 Build 0)  -->
<svg version="1.1" id="Layer_1" xmlns="http://www.w3.org/2000/svg" xmlns:xlink="http://www.w3.org/1999/xlink" x="0px" y="0px"
	 viewBox="0 0 500 500" style="enable-background:new 0 0 500 500;" xml:space="preserve">
<style type="text/css">
	.st0{fill:url(#SVGID_1_);}
	.st1{fill:#F1F2F2;}
	.st2{font-family:'TimesNewRomanPSMT';}
	.st3{font-size:318.4664px;}
	.st4{font-family:'TimesNewRomanPS-ItalicMT';}
	.st5{font-size:48px;}
	.st6{font-size:51.5296px;}
</style>
<linearGradient id="SVGID_1_" gradientUnits="userSpaceOnUse" x1="109.4807" y1="148.0212" x2="462.4439" y2="404.0811">
	<stop  offset="8.371142e-07" style="stop-color:#009444;stop-opacity:0.9"/>
	<stop  offset="9.473079e-02" style="stop-color:#008F4A;stop-opacity:0.9"/>
	<stop  offset="0.2776" style="stop-color:#00835D;stop-opacity:0.9"/>
	<stop  offset="0.53" style="stop-color:#026F75;stop-opacity:0.9"/>
	<stop  offset="0.8391" style="stop-color:#16538E;stop-opacity:0.9"/>
	<stop  offset="1" style="stop-color:#21409A;stop-opacity:0.9"/>
</linearGradient>
<path class="st0" d="M458.8,291.5c-14.3-8.2-28.5-16.4-42.8-24.4c-2.6-1.5-3.5-3.1-3.4-6.1c0.2-7.5-0.1-15.1,0.2-22.7
	c0-1.8,1.4-4.1,2.9-5.1c5-3.3,10.4-6.2,15.7-9.2c10.8-6.2,21.6-12.4,33.2-19l0,0c-4.2-12.3-8.5-24.2-12.5-36.2
	c-1.4-4.4-3.9-5-8.1-4.5c-16.4,1.9-32.8,3.2-49.2,4.9c-3.1,0.3-5-0.5-6.8-3.2c-4.2-6.1-8.8-12-13.4-17.8c-1.7-2.1-2.3-3.8-0.9-6.4
	c2.5-5.1,4.7-10.3,7-15.5c5.1-11.4,10.2-22.8,15.7-35.1c-11.4-7.8-22.6-15.3-33.6-23c-2.5-1.8-4.1-1-6.2,0.8L318,102.1
	c-2.3,2-4.1,2.1-7,1.1c-7-2.5-14.1-4.7-21.3-6.6c-3.3-0.9-4.7-2.4-5.4-5.7c-3.8-17.3-7.8-34.5-11.9-52.4h-44.9
	c-4.1,18.1-8.1,35.4-11.9,52.7c-0.7,3.2-2.3,4.5-5.2,5.3c-7.2,2-14.3,4.1-21.3,6.7c-3,1.1-4.9,0.8-7.3-1.3
	c-12.7-11.2-25.6-22.2-38.6-33.1c-1.2-1-4.1-1.7-5.1-1c-11.5,7.5-22.9,15.4-34.4,23.2c7.8,17.4,15,33.7,22.5,50
	c1.5,3.1,1,5.1-1.1,7.7c-4,4.7-8.3,9.5-11.3,14.8c-2.9,5.2-6.4,6-11.8,5.3c-16-1.9-32.1-3.3-48.1-4.7c-1.5-0.1-4.1,0.9-4.5,2
	c-4.8,12.8-9.3,25.8-13.8,38.6c2.5,1.5,3.8,2.3,5.1,3c14.4,8.3,28.8,16.6,43.3,24.7c2.8,1.6,3.8,3.3,3.6,6.5
	c-0.3,7.2-0.3,14.5,0,21.7c0.1,3.2-0.9,4.9-3.7,6.5c-14.3,8-28.6,16.2-42.8,24.4c-1.6,0.9-3.1,2-5.4,3.5
	c4.3,12.2,8.6,24.2,12.5,36.2c1.4,4.4,3.9,4.6,7.8,4.2c16.4-1.8,32.8-3.2,49.2-4.9c3.3-0.3,5.3,0.5,7.2,3.4
	c3.7,5.6,7.6,11.1,12.1,16.2c2.7,3.2,3.1,5.7,1.4,9.5c-7.4,15.9-14.4,32-22.1,49c11.5,7.8,22.8,15.7,34.4,23.3c1,0.7,3.9,0,5.1-1
	c13-10.9,25.9-22,38.6-33.1c2.5-2.1,4.3-2.5,7.4-1.3c6.8,2.6,13.7,4.7,20.7,6.6c3.4,0.9,5,2.3,5.8,5.9c3.7,17.3,7.7,34.5,11.8,52.3
	h44.9c4.1-18,8.1-35.2,11.9-52.5c0.7-3.3,2.1-4.9,5.4-5.7c7.2-1.9,14.3-4,21.3-6.6c3.1-1.2,5-0.6,7.3,1.4
	c12.8,11.2,25.6,22.2,38.6,33.1c1.1,0.9,3.7,1.6,4.7,1c11.7-7.6,23.2-15.6,34.7-23.4c-7.8-17.6-15-33.9-22.5-50.2
	c-1.4-3-0.9-4.9,1-7.3c4.1-4.9,8.5-9.7,11.6-15.2c3-5.3,6.6-5.7,11.9-5.1c16,1.9,32.1,3.3,48.1,4.7c1.5,0.1,4-1.3,4.5-2.6
	c4.7-12.5,9.1-25.2,13.5-37.8C462,293.5,460.4,292.5,458.8,291.5z"/>
<text transform="matrix(1 0 0 1 150.417 341.9834)" class="st1 st2 st3">Z</text>
<text transform="matrix(0.5736 -0.8192 0.8192 0.5736 191.0965 261.5066)" class="st1 st4 st5">NEW</text>
<text transform="matrix(0.5687 -0.8225 0.8225 0.5687 216.2543 391.8322)" class="st1 st4 st6">ENGINEERS</text>
</svg>
