<?xml version="1.0" encoding="utf-8"?>
<!-- Generator: Adobe Illustrator 27.1.0, SVG Export Plug-In . SVG Version: 6.00 Build 0)  -->
<svg version="1.1" id="Layer_1" xmlns="http://www.w3.org/2000/svg" xmlns:xlink="http://www.w3.org/1999/xlink" x="0px" y="0px"
	 viewBox="0 0 600 600" style="enable-background:new 0 0 600 600;" xml:space="preserve">
<style type="text/css">
	.st0{fill:none;}
	.st1{fill:url(#SVGID_1_);}
	.st2{fill:#FFFFFF;}
</style>
<rect class="st0" width="600" height="498"/>
<circle class="st0" cx="300" cy="300" r="280"/>
<radialGradient id="SVGID_1_" cx="300" cy="258.8563" r="260.2425" gradientUnits="userSpaceOnUse">
	<stop  offset="0" style="stop-color:#FFFFFF"/>
	<stop  offset="4.054170e-02" style="stop-color:#E9E9E9"/>
	<stop  offset="0.1477" style="stop-color:#B3B3B3"/>
	<stop  offset="0.2588" style="stop-color:#838383"/>
	<stop  offset="0.3717" style="stop-color:#5B5B5B"/>
	<stop  offset="0.4867" style="stop-color:#3A3A3A"/>
	<stop  offset="0.6045" style="stop-color:#202020"/>
	<stop  offset="0.7263" style="stop-color:#0E0E0E"/>
	<stop  offset="0.8545" style="stop-color:#030303"/>
	<stop  offset="1" style="stop-color:#000000"/>
</radialGradient>
<path class="st1" d="M300,345c95.1,0,175.1,64.8,198.3,152.7C548.8,447.1,580,377.2,580,300c0-154.6-125.4-280-280-280
	S20,145.4,20,300c0,77.2,31.2,147.1,81.7,197.7C124.9,409.8,204.9,345,300,345z"/>
<path class="st2" d="M300,580c77.5,0,147.6-31.5,198.3-82.3C475.1,409.8,395.1,345,300,345s-175.1,64.8-198.3,152.7
	C152.4,548.5,222.5,580,300,580z"/>
<circle class="st2" cx="300" cy="230" r="115"/>
</svg>
